<?xml version="1.0" encoding="UTF-8"?>
<svg xmlns="http://www.w3.org/2000/svg" xmlns:xlink="http://www.w3.org/1999/xlink" width="867.31pt" height="230.59pt" viewBox="0 0 867.31 230.59" version="1.1">
<defs>
<clipPath id="clip1">
  <path d="M 403 63 L 543 63 L 543 230.589844 L 403 230.589844 Z M 403 63 "/>
</clipPath>
<clipPath id="clip2">
  <path d="M 711 59 L 867.308594 59 L 867.308594 230.589844 L 711 230.589844 Z M 711 59 "/>
</clipPath>
</defs>
<g id="surface1">
<path style=" stroke:none;fill-rule:nonzero;fill:rgb(31.799316%,70.999146%,28.199768%);fill-opacity:1;" d="M 672.527344 0.0078125 C 685.007813 0.0078125 695.128906 10.125 695.128906 22.605469 C 695.128906 35.085938 685.007813 45.203125 672.527344 45.203125 C 660.046875 45.203125 649.929688 35.085938 649.929688 22.605469 C 649.929688 10.125 660.046875 0.0078125 672.527344 0.0078125 "/>
<path style=" stroke:none;fill-rule:nonzero;fill:rgb(31.799316%,70.999146%,28.199768%);fill-opacity:1;" d="M 228.859375 228.710938 C 195.964844 228.710938 179.671875 209.910156 179.671875 178.582031 L 179.671875 95.871094 L 149.90625 95.871094 L 149.90625 63.605469 L 179.671875 63.605469 L 179.671875 22.25 L 218.832031 12.535156 L 218.832031 63.605469 L 259.871094 63.605469 L 259.871094 95.871094 L 218.832031 95.871094 L 218.832031 175.136719 C 218.832031 187.667969 224.472656 192.992188 237.003906 192.992188 C 245.148438 192.992188 251.726563 192.683594 262.378906 191.429688 L 262.378906 224.324219 C 251.414063 227.144531 240.449219 228.710938 228.859375 228.710938 "/>
<path style=" stroke:none;fill-rule:nonzero;fill:rgb(31.799316%,70.999146%,28.199768%);fill-opacity:1;" d="M 368.75 98.378906 C 341.183594 98.378906 326.769531 118.113281 326.769531 144.433594 L 326.769531 226.515625 L 287.296875 226.515625 L 287.296875 63.605469 L 320.503906 63.605469 L 323.949219 88.039063 C 331.472656 69.242188 350.894531 61.410156 370.003906 61.410156 C 374.078125 61.410156 378.152344 61.722656 382.222656 62.351563 L 382.222656 99.945313 C 377.835938 99.007813 373.136719 98.378906 368.75 98.378906 "/>
<g clip-path="url(#clip1)" clip-rule="nonzero">
<path style=" stroke:none;fill-rule:nonzero;fill:rgb(31.799316%,70.999146%,28.199768%);fill-opacity:1;" d="M 509.472656 226.515625 L 506.652344 205.214844 C 498.820313 221.191406 480.648438 230.589844 459.972656 230.589844 C 425.195313 230.589844 403.578125 207.09375 403.578125 172.316406 L 403.578125 63.605469 L 442.738281 63.605469 L 442.738281 163.542969 C 442.738281 182.65625 450.261719 194.5625 470.9375 194.5625 C 480.023438 194.5625 486.289063 191.113281 490.988281 186.414063 C 500.386719 177.640625 502.894531 162.917969 502.894531 149.761719 L 502.894531 63.605469 L 542.054688 63.605469 L 542.054688 226.515625 L 509.472656 226.515625 "/>
</g>
<path style=" stroke:none;fill-rule:nonzero;fill:rgb(31.799316%,70.999146%,28.199768%);fill-opacity:1;" d="M 612.183594 228.394531 C 585.550781 228.394531 567.695313 215.550781 567.695313 184.535156 L 567.695313 0.00390625 L 607.167969 0.00390625 L 607.167969 177.957031 C 607.167969 187.355469 609.359375 193.617188 622.832031 193.617188 C 626.28125 193.617188 627.21875 193.308594 629.410156 193.308594 L 629.410156 226.199219 C 621.582031 227.769531 620.015625 228.394531 612.183594 228.394531 "/>
<path style=" stroke:none;fill-rule:nonzero;fill:rgb(31.799316%,70.999146%,28.199768%);fill-opacity:1;" d="M 652.632813 226.515625 L 652.632813 63.605469 L 692.421875 63.605469 L 692.421875 226.515625 L 652.632813 226.515625 "/>
<g clip-path="url(#clip2)" clip-rule="nonzero">
<path style=" stroke:none;fill-rule:nonzero;fill:rgb(31.799316%,70.999146%,28.199768%);fill-opacity:1;" d="M 814.984375 154.144531 L 773.628906 157.277344 C 761.726563 158.21875 750.132813 165.421875 750.132813 178.582031 C 750.132813 191.113281 761.097656 198.945313 773.316406 198.945313 C 797.753906 198.945313 814.984375 185.785156 814.984375 161.664063 Z M 847.882813 229.023438 C 830.964844 229.023438 821.5625 218.371094 820.3125 206.152344 C 812.792969 219.3125 793.996094 230.589844 770.8125 230.589844 C 731.960938 230.589844 711.910156 206.152344 711.910156 179.523438 C 711.910156 148.507813 736.035156 130.648438 767.050781 128.453125 L 814.984375 125.007813 L 814.984375 114.984375 C 814.984375 99.632813 809.660156 89.292969 787.414063 89.292969 C 769.246094 89.292969 758.59375 97.4375 757.652344 112.476563 L 719.746094 112.476563 C 721.9375 75.820313 751.074219 59.53125 787.414063 59.53125 C 815.300781 59.53125 839.109375 68.304688 848.507813 92.738281 C 852.582031 103.078125 853.207031 114.667969 853.207031 125.636719 L 853.207031 186.101563 C 853.207031 193.617188 855.710938 196.441406 862.292969 196.441406 C 864.800781 196.441406 867.304688 195.8125 867.304688 195.8125 L 867.304688 224.636719 C 860.726563 227.457031 857.28125 229.023438 847.882813 229.023438 "/>
</g>
<path style=" stroke:none;fill-rule:nonzero;fill:rgb(31.799316%,70.999146%,28.199768%);fill-opacity:1;" d="M 59.371094 92.976563 C 44.417969 92.976563 32.300781 80.859375 32.300781 65.90625 C 32.300781 50.957031 44.417969 38.839844 59.371094 38.839844 C 74.320313 38.839844 86.441406 50.957031 86.441406 65.90625 C 86.441406 80.859375 74.320313 92.976563 59.371094 92.976563 Z M 59.179688 0.00390625 C 23.214844 0.203125 0 24.339844 0 60.835938 C 0 91.046875 19.707031 116.882813 30.941406 156.160156 C 37.371094 178.652344 40.832031 206.1875 42.644531 226.515625 L 75.714844 226.515625 C 77.527344 206.1875 80.988281 178.652344 87.417969 156.160156 C 98.652344 116.882813 118.359375 91.046875 118.359375 60.835938 C 118.359375 24.339844 95.144531 0.207031 59.179688 0.00390625 "/>
</g>
</svg>
